<svg width="23" height="27" viewBox="0 0 23 27" fill="none" xmlns="http://www.w3.org/2000/svg">
<path d="M11.25 0C9.77263 0 8.30972 0.347824 6.94481 1.02361C5.5799 1.6994 4.33971 2.68992 3.29505 3.93861C1.18526 6.46046 0 9.88083 0 13.4473C0 17.0137 1.18526 20.4341 3.29505 22.9559C4.33971 24.2046 5.5799 25.1951 6.94481 25.8709C8.30972 26.5467 9.77263 26.8945 11.25 26.8945C14.2337 26.8945 17.0952 25.4778 19.205 22.9559C21.3147 20.4341 22.5 17.0137 22.5 13.4473C22.5 11.6813 22.209 9.93272 21.6436 8.30122C21.0783 6.66972 20.2496 5.18731 19.205 3.93861C18.1603 2.68992 16.9201 1.6994 15.5552 1.02361C14.1903 0.347824 12.7274 0 11.25 0ZM5.70375 21.8921C6.1875 20.6819 9.135 19.4985 11.25 19.4985C13.365 19.4985 16.3125 20.6819 16.7962 21.8921C15.2206 23.3929 13.2647 24.2085 11.25 24.2051C9.1575 24.2051 7.23375 23.3445 5.70375 21.8921ZM18.405 19.9423C16.7963 17.6025 12.8925 16.8091 11.25 16.8091C9.6075 16.8091 5.70375 17.6025 4.095 19.9423C2.89821 18.0793 2.24962 15.7961 2.25 13.4473C2.25 7.51702 6.28875 2.68945 11.25 2.68945C16.2112 2.68945 20.25 7.51702 20.25 13.4473C20.25 15.8947 19.5525 18.1538 18.405 19.9423ZM11.25 5.37891C9.0675 5.37891 7.3125 7.47668 7.3125 10.0854C7.3125 12.6942 9.0675 14.792 11.25 14.792C13.4325 14.792 15.1875 12.6942 15.1875 10.0854C15.1875 7.47668 13.4325 5.37891 11.25 5.37891ZM11.25 12.1025C10.8024 12.1025 10.3732 11.89 10.0568 11.5117C9.74029 11.1335 9.5625 10.6204 9.5625 10.0854C9.5625 9.55048 9.74029 9.03743 10.0568 8.65915C10.3732 8.28087 10.8024 8.06836 11.25 8.06836C11.6976 8.06836 12.1268 8.28087 12.4432 8.65915C12.7597 9.03743 12.9375 9.55048 12.9375 10.0854C12.9375 10.6204 12.7597 11.1335 12.4432 11.5117C12.1268 11.89 11.6976 12.1025 11.25 12.1025Z" fill="#FEFEFE"/>
</svg>
