<svg width="17" height="17" viewBox="0 0 17 17" fill="none" xmlns="http://www.w3.org/2000/svg">
<g clip-path="url(#clip0_24_363)">
<path d="M16.4844 8.1395C16.4847 6.60362 16.0384 5.09982 15.1982 3.80614C14.358 2.51246 13.1592 1.48309 11.7437 0.839916C10.3282 0.196744 8.75524 -0.0332943 7.21115 0.177039C5.66706 0.387373 4.21648 1.02927 3.03116 2.02672C1.84584 3.02418 0.975434 4.33541 0.522997 5.80517C0.0705608 7.27493 0.0550458 8.84165 0.478289 10.3198C0.901533 11.798 1.74581 13.1257 2.91115 14.1458C4.07649 15.1658 5.51408 15.8355 7.05371 16.0755V10.462H4.98304V8.1395H7.05371V6.36847C7.00913 5.95505 7.05738 5.53702 7.19504 5.14402C7.33271 4.75101 7.55643 4.39266 7.85033 4.09435C8.14424 3.79604 8.50114 3.56507 8.89574 3.41783C9.29034 3.27058 9.71299 3.21066 10.1337 3.2423C10.7455 3.25022 11.3558 3.3026 11.9597 3.39901V5.37899H10.932C10.7569 5.35643 10.579 5.37295 10.4113 5.42732C10.2436 5.48169 10.0904 5.57253 9.96315 5.6931C9.83588 5.81367 9.73776 5.9609 9.67605 6.12388C9.61433 6.28686 9.5906 6.46144 9.60662 6.63468V8.14151H11.869L11.507 10.464H9.60254V16.0805C11.5215 15.7814 13.2691 14.8171 14.5308 13.3613C15.7924 11.9055 16.4852 10.0538 16.4844 8.1395Z" fill="#315BFF"/>
</g>
<defs>
<clipPath id="clip0_24_363">
<rect width="16.3125" height="16.0729" fill="white" transform="translate(0.171875 0.0546875)"/>
</clipPath>
</defs>
</svg>
