<svg width="17" height="17" viewBox="0 0 17 17" fill="none" xmlns="http://www.w3.org/2000/svg">
<g clip-path="url(#clip0_24_358)">
<path d="M12.4916 4.93338C13.0321 4.93338 13.4703 4.50162 13.4703 3.96901C13.4703 3.4364 13.0321 3.00464 12.4916 3.00464C11.951 3.00464 11.5128 3.4364 11.5128 3.96901C11.5128 4.50162 11.951 4.93338 12.4916 4.93338Z" fill="#315BFF"/>
<path d="M8.26562 12.1141C6.01654 12.1141 4.1875 10.3119 4.1875 8.09585C4.1875 5.87981 6.01654 4.07764 8.26562 4.07764C10.5147 4.07764 12.3438 5.87981 12.3438 8.09585C12.3438 10.3119 10.5147 12.1141 8.26562 12.1141ZM8.26562 6.08674C7.14108 6.08674 6.22656 6.98783 6.22656 8.09585C6.22656 9.20387 7.14108 10.105 8.26562 10.105C9.39017 10.105 10.3047 9.20387 10.3047 8.09585C10.3047 6.98783 9.39017 6.08674 8.26562 6.08674Z" fill="#315BFF"/>
<path d="M12.3438 16.1322H4.1875C2.09134 16.1322 0.109375 14.1793 0.109375 12.114V4.07754C0.109375 2.01218 2.09134 0.0593262 4.1875 0.0593262H12.3438C14.4399 0.0593262 16.4219 2.01218 16.4219 4.07754V12.114C16.4219 14.1793 14.4399 16.1322 12.3438 16.1322ZM4.1875 2.06843C3.23424 2.06843 2.14844 3.13828 2.14844 4.07754V12.114C2.14844 13.0713 3.21589 14.1231 4.1875 14.1231H12.3438C13.297 14.1231 14.3828 13.0532 14.3828 12.114V4.07754C14.3828 3.13828 13.297 2.06843 12.3438 2.06843H4.1875Z" fill="#315BFF"/>
</g>
<defs>
<clipPath id="clip0_24_358">
<rect width="16.3125" height="16.0729" fill="white" transform="translate(0.109375 0.0593262)"/>
</clipPath>
</defs>
</svg>
