<svg width="26" height="29" viewBox="0 0 26 29" fill="none" xmlns="http://www.w3.org/2000/svg">
<path d="M10.9375 25.6245C10.9375 26.1417 10.8092 26.6472 10.5688 27.0772C10.3285 27.5072 9.98683 27.8423 9.58712 28.0402C9.18741 28.2381 8.74757 28.2899 8.32324 28.189C7.89891 28.0881 7.50913 27.8391 7.2032 27.4734C6.89728 27.1077 6.68894 26.6418 6.60453 26.1346C6.52013 25.6274 6.56345 25.1017 6.72901 24.6239C6.89458 24.1461 7.17496 23.7377 7.53469 23.4504C7.89442 23.1631 8.31735 23.0098 8.75 23.0098C9.32928 23.0132 9.88401 23.2898 10.2936 23.7794C10.7032 24.269 10.9346 24.9321 10.9375 25.6245ZM20.125 23.0098C19.6924 23.0098 19.2694 23.1631 18.9097 23.4504C18.55 23.7377 18.2696 24.1461 18.104 24.6239C17.9384 25.1017 17.8951 25.6274 17.9795 26.1346C18.0639 26.6418 18.2723 27.1077 18.5782 27.4734C18.8841 27.8391 19.2739 28.0881 19.6982 28.189C20.1226 28.2899 20.5624 28.2381 20.9621 28.0402C21.3618 27.8423 21.7035 27.5072 21.9438 27.0772C22.1842 26.6472 22.3125 26.1417 22.3125 25.6245C22.3096 24.9321 22.0782 24.269 21.6686 23.7794C21.259 23.2898 20.7043 23.0132 20.125 23.0098ZM25.5172 7.22977L22.8703 18.264C22.6859 19.0271 22.2994 19.6982 21.769 20.1767C21.2386 20.6552 20.5927 20.9153 19.9281 20.918H8.94688C8.28234 20.9153 7.63645 20.6552 7.106 20.1767C6.57556 19.6982 6.18915 19.0271 6.00469 18.264L3.36875 7.25592C3.36875 7.24285 3.35781 7.2167 3.35781 7.20363L2.38437 3.1377H1.3125C0.964403 3.1377 0.630564 2.97241 0.384422 2.67819C0.138281 2.38397 0 1.98493 0 1.56885C0 1.15276 0.138281 0.753721 0.384422 0.459505C0.630564 0.165289 0.964403 0 1.3125 0H2.7125C3.18777 0.00430881 3.64933 0.190797 4.02932 0.532037C4.40931 0.873278 4.68766 1.35126 4.82344 1.89569L5.61094 5.22949H24.2484C24.4515 5.23088 24.6515 5.28807 24.833 5.39665C25.0146 5.50523 25.1728 5.66228 25.2955 5.85566C25.4181 6.04903 25.5019 6.27354 25.5404 6.51182C25.5788 6.75009 25.5709 6.99575 25.5172 7.22977ZM22.5094 8.36719H6.36563L8.52031 17.4011C8.5483 17.5104 8.60479 17.6062 8.68153 17.6744C8.75827 17.7426 8.85124 17.7797 8.94688 17.7803H19.9281C20.0238 17.7797 20.1167 17.7426 20.1935 17.6744C20.2702 17.6062 20.3267 17.5104 20.3547 17.4011L22.5094 8.36719Z" fill="white"/>
</svg>
