<svg width="31" height="31" viewBox="0 0 31 31" fill="none" xmlns="http://www.w3.org/2000/svg">
<path d="M20.0208 18.0833H19.0004L18.6388 17.7346C19.9483 16.2156 20.6681 14.2764 20.6667 12.2708C20.6667 10.6103 20.1743 8.98705 19.2517 7.60636C18.3292 6.22567 17.0179 5.14956 15.4838 4.5141C13.9496 3.87864 12.2615 3.71237 10.6329 4.03633C9.00426 4.36028 7.50826 5.15991 6.33409 6.33409C5.15991 7.50826 4.36028 9.00426 4.03633 10.6329C3.71237 12.2615 3.87864 13.9496 4.5141 15.4838C5.14956 17.0179 6.22567 18.3292 7.60636 19.2517C8.98705 20.1743 10.6103 20.6667 12.2708 20.6667C14.3504 20.6667 16.2621 19.9046 17.7346 18.6388L18.0833 19.0004V20.0208L24.5417 26.4663L26.4663 24.5417L20.0208 18.0833V18.0833ZM12.2708 18.0833C9.05459 18.0833 6.45834 15.4871 6.45834 12.2708C6.45834 9.05459 9.05459 6.45834 12.2708 6.45834C15.4871 6.45834 18.0833 9.05459 18.0833 12.2708C18.0833 15.4871 15.4871 18.0833 12.2708 18.0833Z" fill="white"/>
</svg>
