<svg width="17" height="14" viewBox="0 0 17 14" fill="none" xmlns="http://www.w3.org/2000/svg">
<g clip-path="url(#clip0_24_356)">
<path d="M16.5469 1.57055C15.9352 1.87192 15.3234 1.97237 14.6098 2.07283C15.3234 1.67101 15.8332 1.06827 16.0371 0.264631C15.4254 0.666453 14.7117 0.867364 13.8961 1.06827C13.2844 0.465542 12.3668 0.0637207 11.4492 0.0637207C9.71602 0.0637207 8.18672 1.57055 8.18672 3.37875C8.18672 3.68011 8.18672 3.88102 8.28867 4.08193C5.53594 3.98148 2.98711 2.67556 1.35586 0.666453C1.05 1.16873 0.948047 1.67101 0.948047 2.37419C0.948047 3.4792 1.55977 4.48376 2.47734 5.08649C1.96758 5.08649 1.45781 4.88558 0.948047 4.68467C0.948047 6.29195 2.06953 7.59787 3.59883 7.89924C3.29297 7.99969 2.98711 7.99969 2.68125 7.99969C2.47734 7.99969 2.27344 7.99969 2.06953 7.89924C2.47734 9.20516 3.70078 10.2097 5.23008 10.2097C4.10859 11.1138 2.68125 11.6161 1.05 11.6161C0.744141 11.6161 0.540234 11.6161 0.234375 11.6161C1.76367 12.5202 3.49688 13.1229 5.33203 13.1229C11.4492 13.1229 14.8137 8.10015 14.8137 3.78057C14.8137 3.68011 14.8137 3.4792 14.8137 3.37875C15.5273 2.87647 16.1391 2.27374 16.5469 1.57055Z" fill="#315BFF"/>
</g>
<defs>
<clipPath id="clip0_24_356">
<rect width="16.3125" height="13.0592" fill="white" transform="translate(0.234375 0.0637207)"/>
</clipPath>
</defs>
</svg>
